<mxfile host="app.diagrams.net" agent="Mozilla/5.0 (Windows NT 10.0; Win64; x64) AppleWebKit/537.36 (KHTML, like Gecko) Chrome/140.0.0.0 Safari/537.36 Edg/140.0.0.0" version="28.2.2">
  <diagram name="ページ1" id="VKpxe214g9lJhsJcVSof">
    <mxGraphModel dx="778" dy="507" grid="1" gridSize="10" guides="1" tooltips="1" connect="1" arrows="1" fold="1" page="1" pageScale="1" pageWidth="827" pageHeight="1169" math="0" shadow="0">
      <root>
        <mxCell id="0" />
        <mxCell id="1" parent="0" />
        <mxCell id="-CZ7S4NUAWg_-SnuwwWF-1" value="ユーザー" style="shape=umlActor;verticalLabelPosition=bottom;verticalAlign=top;html=1;fillColor=#f5f5f5;fontColor=#333333;strokeColor=#666666;" vertex="1" parent="1">
          <mxGeometry x="20" y="210" width="50" height="80" as="geometry" />
        </mxCell>
        <mxCell id="-CZ7S4NUAWg_-SnuwwWF-3" value="Welcome&lt;div&gt;ページ&lt;/div&gt;" style="shape=umlBoundary;whiteSpace=wrap;html=1;fillColor=#dae8fc;strokeColor=#6c8ebf;" vertex="1" parent="1">
          <mxGeometry x="200" y="320" width="100" height="80" as="geometry" />
        </mxCell>
        <mxCell id="-CZ7S4NUAWg_-SnuwwWF-4" value="ログイン画面" style="shape=umlBoundary;whiteSpace=wrap;html=1;fillColor=#dae8fc;strokeColor=#6c8ebf;" vertex="1" parent="1">
          <mxGeometry x="200" y="200" width="100" height="80" as="geometry" />
        </mxCell>
        <mxCell id="-CZ7S4NUAWg_-SnuwwWF-5" value="ブラウザ" style="shape=umlBoundary;whiteSpace=wrap;html=1;fillColor=#dae8fc;strokeColor=#6c8ebf;" vertex="1" parent="1">
          <mxGeometry x="200" y="70" width="100" height="80" as="geometry" />
        </mxCell>
        <mxCell id="-CZ7S4NUAWg_-SnuwwWF-6" value="表示１２" style="ellipse;shape=umlControl;whiteSpace=wrap;html=1;fillColor=#dae8fc;strokeColor=#6c8ebf;" vertex="1" parent="1">
          <mxGeometry x="340" y="270" width="50" height="60" as="geometry" />
        </mxCell>
        <mxCell id="-CZ7S4NUAWg_-SnuwwWF-7" value="ユーザー&lt;div&gt;認証&lt;/div&gt;" style="ellipse;shape=umlControl;whiteSpace=wrap;html=1;fillColor=#dae8fc;strokeColor=#6c8ebf;" vertex="1" parent="1">
          <mxGeometry x="470" y="170" width="70" height="80" as="geometry" />
        </mxCell>
        <mxCell id="-CZ7S4NUAWg_-SnuwwWF-8" value="表示１１" style="ellipse;shape=umlControl;whiteSpace=wrap;html=1;fillColor=#dae8fc;strokeColor=#6c8ebf;" vertex="1" parent="1">
          <mxGeometry x="460" y="50" width="70" height="80" as="geometry" />
        </mxCell>
        <mxCell id="-CZ7S4NUAWg_-SnuwwWF-9" value="訪問者" style="ellipse;shape=umlEntity;whiteSpace=wrap;html=1;fillColor=#dae8fc;strokeColor=#6c8ebf;" vertex="1" parent="1">
          <mxGeometry x="630" y="170" width="80" height="80" as="geometry" />
        </mxCell>
        <mxCell id="-CZ7S4NUAWg_-SnuwwWF-10" value="" style="endArrow=classic;html=1;rounded=0;exitX=1;exitY=0.3333333333333333;exitDx=0;exitDy=0;exitPerimeter=0;entryX=-0.007;entryY=0.554;entryDx=0;entryDy=0;entryPerimeter=0;" edge="1" parent="1" source="-CZ7S4NUAWg_-SnuwwWF-1" target="-CZ7S4NUAWg_-SnuwwWF-5">
          <mxGeometry width="50" height="50" relative="1" as="geometry">
            <mxPoint x="390" y="290" as="sourcePoint" />
            <mxPoint x="440" y="240" as="targetPoint" />
          </mxGeometry>
        </mxCell>
        <mxCell id="-CZ7S4NUAWg_-SnuwwWF-12" value="" style="endArrow=classic;html=1;rounded=0;entryX=0.057;entryY=0.721;entryDx=0;entryDy=0;entryPerimeter=0;" edge="1" parent="1" target="-CZ7S4NUAWg_-SnuwwWF-8">
          <mxGeometry width="50" height="50" relative="1" as="geometry">
            <mxPoint x="303" y="108" as="sourcePoint" />
            <mxPoint x="440" y="240" as="targetPoint" />
          </mxGeometry>
        </mxCell>
        <mxCell id="-CZ7S4NUAWg_-SnuwwWF-13" value="" style="endArrow=classic;html=1;rounded=0;exitX=0.114;exitY=0.913;exitDx=0;exitDy=0;exitPerimeter=0;entryX=0.907;entryY=0.213;entryDx=0;entryDy=0;entryPerimeter=0;" edge="1" parent="1" source="-CZ7S4NUAWg_-SnuwwWF-8" target="-CZ7S4NUAWg_-SnuwwWF-4">
          <mxGeometry width="50" height="50" relative="1" as="geometry">
            <mxPoint x="390" y="290" as="sourcePoint" />
            <mxPoint x="310" y="200" as="targetPoint" />
          </mxGeometry>
        </mxCell>
        <mxCell id="-CZ7S4NUAWg_-SnuwwWF-14" value="新規登録画面" style="shape=umlBoundary;whiteSpace=wrap;html=1;fillColor=#dae8fc;strokeColor=#6c8ebf;" vertex="1" parent="1">
          <mxGeometry x="200" y="440" width="100" height="80" as="geometry" />
        </mxCell>
        <mxCell id="-CZ7S4NUAWg_-SnuwwWF-15" value="ログイン&lt;div&gt;失敗&lt;span style=&quot;background-color: transparent; color: light-dark(rgb(0, 0, 0), rgb(255, 255, 255));&quot;&gt;画面&lt;/span&gt;&lt;div&gt;&lt;br&gt;&lt;/div&gt;&lt;/div&gt;" style="shape=umlBoundary;whiteSpace=wrap;html=1;fillColor=#dae8fc;strokeColor=#6c8ebf;" vertex="1" parent="1">
          <mxGeometry x="200" y="560" width="100" height="80" as="geometry" />
        </mxCell>
        <mxCell id="-CZ7S4NUAWg_-SnuwwWF-16" value="表示１３" style="ellipse;shape=umlControl;whiteSpace=wrap;html=1;fillColor=#dae8fc;strokeColor=#6c8ebf;" vertex="1" parent="1">
          <mxGeometry x="386" y="340" width="55" height="60" as="geometry" />
        </mxCell>
        <mxCell id="-CZ7S4NUAWg_-SnuwwWF-17" value="表示１４" style="ellipse;shape=umlControl;whiteSpace=wrap;html=1;fillColor=#dae8fc;strokeColor=#6c8ebf;" vertex="1" parent="1">
          <mxGeometry x="480" y="410" width="60" height="70" as="geometry" />
        </mxCell>
        <mxCell id="-CZ7S4NUAWg_-SnuwwWF-18" value="" style="endArrow=classic;html=1;rounded=0;exitX=1;exitY=0.375;exitDx=0;exitDy=0;exitPerimeter=0;entryX=-0.029;entryY=0.496;entryDx=0;entryDy=0;entryPerimeter=0;" edge="1" parent="1" source="-CZ7S4NUAWg_-SnuwwWF-4" target="-CZ7S4NUAWg_-SnuwwWF-7">
          <mxGeometry width="50" height="50" relative="1" as="geometry">
            <mxPoint x="390" y="260" as="sourcePoint" />
            <mxPoint x="440" y="210" as="targetPoint" />
          </mxGeometry>
        </mxCell>
        <mxCell id="-CZ7S4NUAWg_-SnuwwWF-19" value="" style="endArrow=classic;html=1;rounded=0;exitX=0.181;exitY=0.946;exitDx=0;exitDy=0;exitPerimeter=0;entryX=1.029;entryY=0.563;entryDx=0;entryDy=0;entryPerimeter=0;" edge="1" parent="1" source="-CZ7S4NUAWg_-SnuwwWF-7" target="-CZ7S4NUAWg_-SnuwwWF-6">
          <mxGeometry width="50" height="50" relative="1" as="geometry">
            <mxPoint x="380" y="350" as="sourcePoint" />
            <mxPoint x="548" y="330" as="targetPoint" />
          </mxGeometry>
        </mxCell>
        <mxCell id="-CZ7S4NUAWg_-SnuwwWF-20" value="" style="endArrow=classic;html=1;rounded=0;exitX=0.152;exitY=0.896;exitDx=0;exitDy=0;exitPerimeter=0;entryX=0.893;entryY=0.129;entryDx=0;entryDy=0;entryPerimeter=0;" edge="1" parent="1" source="-CZ7S4NUAWg_-SnuwwWF-6" target="-CZ7S4NUAWg_-SnuwwWF-3">
          <mxGeometry width="50" height="50" relative="1" as="geometry">
            <mxPoint x="560" y="300" as="sourcePoint" />
            <mxPoint x="728" y="280" as="targetPoint" />
          </mxGeometry>
        </mxCell>
        <mxCell id="-CZ7S4NUAWg_-SnuwwWF-21" value="" style="endArrow=classic;html=1;rounded=0;exitX=0.381;exitY=1.021;exitDx=0;exitDy=0;exitPerimeter=0;entryX=0.857;entryY=0.25;entryDx=0;entryDy=0;entryPerimeter=0;" edge="1" parent="1" source="-CZ7S4NUAWg_-SnuwwWF-7" target="-CZ7S4NUAWg_-SnuwwWF-16">
          <mxGeometry width="50" height="50" relative="1" as="geometry">
            <mxPoint x="330" y="430" as="sourcePoint" />
            <mxPoint x="498" y="410" as="targetPoint" />
          </mxGeometry>
        </mxCell>
        <mxCell id="-CZ7S4NUAWg_-SnuwwWF-22" value="" style="endArrow=classic;html=1;rounded=0;exitX=0.218;exitY=0.861;exitDx=0;exitDy=0;exitPerimeter=0;entryX=0.94;entryY=0.246;entryDx=0;entryDy=0;entryPerimeter=0;" edge="1" parent="1" source="-CZ7S4NUAWg_-SnuwwWF-16" target="-CZ7S4NUAWg_-SnuwwWF-14">
          <mxGeometry width="50" height="50" relative="1" as="geometry">
            <mxPoint x="330" y="400" as="sourcePoint" />
            <mxPoint x="498" y="380" as="targetPoint" />
          </mxGeometry>
        </mxCell>
        <mxCell id="-CZ7S4NUAWg_-SnuwwWF-23" value="" style="endArrow=classic;html=1;rounded=0;exitX=0.714;exitY=1;exitDx=0;exitDy=0;exitPerimeter=0;entryX=0.752;entryY=0.171;entryDx=0;entryDy=0;entryPerimeter=0;" edge="1" parent="1" source="-CZ7S4NUAWg_-SnuwwWF-7" target="-CZ7S4NUAWg_-SnuwwWF-17">
          <mxGeometry width="50" height="50" relative="1" as="geometry">
            <mxPoint x="580" y="300" as="sourcePoint" />
            <mxPoint x="748" y="280" as="targetPoint" />
          </mxGeometry>
        </mxCell>
        <mxCell id="-CZ7S4NUAWg_-SnuwwWF-24" value="" style="endArrow=classic;html=1;rounded=0;exitX=0;exitY=0.729;exitDx=0;exitDy=0;exitPerimeter=0;entryX=1;entryY=0.375;entryDx=0;entryDy=0;entryPerimeter=0;" edge="1" parent="1" source="-CZ7S4NUAWg_-SnuwwWF-17" target="-CZ7S4NUAWg_-SnuwwWF-15">
          <mxGeometry width="50" height="50" relative="1" as="geometry">
            <mxPoint x="390" y="450" as="sourcePoint" />
            <mxPoint x="558" y="430" as="targetPoint" />
          </mxGeometry>
        </mxCell>
        <mxCell id="-CZ7S4NUAWg_-SnuwwWF-25" value="" style="endArrow=classic;startArrow=classic;html=1;rounded=0;entryX=-0.033;entryY=0.604;entryDx=0;entryDy=0;entryPerimeter=0;exitX=0.943;exitY=0.613;exitDx=0;exitDy=0;exitPerimeter=0;" edge="1" parent="1" source="-CZ7S4NUAWg_-SnuwwWF-7" target="-CZ7S4NUAWg_-SnuwwWF-9">
          <mxGeometry width="50" height="50" relative="1" as="geometry">
            <mxPoint x="390" y="270" as="sourcePoint" />
            <mxPoint x="440" y="220" as="targetPoint" />
          </mxGeometry>
        </mxCell>
        <mxCell id="-CZ7S4NUAWg_-SnuwwWF-26" value="" style="endArrow=classic;html=1;rounded=0;exitX=1;exitY=0.3333333333333333;exitDx=0;exitDy=0;exitPerimeter=0;entryX=0.02;entryY=0.529;entryDx=0;entryDy=0;entryPerimeter=0;" edge="1" parent="1" source="-CZ7S4NUAWg_-SnuwwWF-1" target="-CZ7S4NUAWg_-SnuwwWF-4">
          <mxGeometry width="50" height="50" relative="1" as="geometry">
            <mxPoint x="390" y="340" as="sourcePoint" />
            <mxPoint x="440" y="290" as="targetPoint" />
          </mxGeometry>
        </mxCell>
        <mxCell id="-CZ7S4NUAWg_-SnuwwWF-27" value="URLを入力する" style="text;html=1;align=center;verticalAlign=middle;whiteSpace=wrap;rounded=0;" vertex="1" parent="1">
          <mxGeometry x="10" y="140" width="200" height="30" as="geometry" />
        </mxCell>
        <mxCell id="-CZ7S4NUAWg_-SnuwwWF-28" value="ユーザIDとパスワード入力" style="text;html=1;align=center;verticalAlign=middle;whiteSpace=wrap;rounded=0;" vertex="1" parent="1">
          <mxGeometry x="60" y="255" width="160" height="30" as="geometry" />
        </mxCell>
        <mxCell id="-CZ7S4NUAWg_-SnuwwWF-31" value="＜－登録ユーザ" style="text;html=1;align=center;verticalAlign=middle;whiteSpace=wrap;rounded=0;rotation=-30;" vertex="1" parent="1">
          <mxGeometry x="360" y="240" width="120" height="30" as="geometry" />
        </mxCell>
        <mxCell id="-CZ7S4NUAWg_-SnuwwWF-32" value="未登録ユーザ" style="text;html=1;align=center;verticalAlign=middle;whiteSpace=wrap;rounded=0;rotation=-55;" vertex="1" parent="1">
          <mxGeometry x="410" y="290" width="90" height="30" as="geometry" />
        </mxCell>
        <mxCell id="-CZ7S4NUAWg_-SnuwwWF-34" value="入力データ不良" style="text;html=1;align=center;verticalAlign=middle;whiteSpace=wrap;rounded=0;rotation=-90;" vertex="1" parent="1">
          <mxGeometry x="430" y="320" width="160" height="20" as="geometry" />
        </mxCell>
        <mxCell id="-CZ7S4NUAWg_-SnuwwWF-35" value="ユーザー" style="shape=umlActor;verticalLabelPosition=bottom;verticalAlign=top;html=1;outlineConnect=0;" vertex="1" parent="1">
          <mxGeometry x="20" y="870" width="60" height="100" as="geometry" />
        </mxCell>
        <mxCell id="-CZ7S4NUAWg_-SnuwwWF-36" value="エラー付き&lt;div&gt;新規登録画面&lt;/div&gt;" style="shape=umlBoundary;whiteSpace=wrap;html=1;fillColor=#ffe6cc;strokeColor=#d79b00;" vertex="1" parent="1">
          <mxGeometry x="200" y="1060" width="100" height="80" as="geometry" />
        </mxCell>
        <mxCell id="-CZ7S4NUAWg_-SnuwwWF-37" value="登録完了画面" style="shape=umlBoundary;whiteSpace=wrap;html=1;fillColor=#ffe6cc;strokeColor=#d79b00;" vertex="1" parent="1">
          <mxGeometry x="200" y="930" width="100" height="80" as="geometry" />
        </mxCell>
        <mxCell id="-CZ7S4NUAWg_-SnuwwWF-38" value="新規登録画面" style="shape=umlBoundary;whiteSpace=wrap;html=1;fillColor=#ffe6cc;strokeColor=#d79b00;" vertex="1" parent="1">
          <mxGeometry x="200" y="760" width="100" height="80" as="geometry" />
        </mxCell>
        <mxCell id="-CZ7S4NUAWg_-SnuwwWF-39" value="表示21" style="ellipse;shape=umlControl;whiteSpace=wrap;html=1;fillColor=#ffe6cc;strokeColor=#d79b00;" vertex="1" parent="1">
          <mxGeometry x="380" y="880" width="70" height="80" as="geometry" />
        </mxCell>
        <mxCell id="-CZ7S4NUAWg_-SnuwwWF-40" value="表示２２" style="ellipse;shape=umlControl;whiteSpace=wrap;html=1;fillColor=#ffe6cc;strokeColor=#d79b00;" vertex="1" parent="1">
          <mxGeometry x="450" y="980" width="70" height="80" as="geometry" />
        </mxCell>
        <mxCell id="-CZ7S4NUAWg_-SnuwwWF-41" value="新規登録" style="ellipse;shape=umlControl;whiteSpace=wrap;html=1;fillColor=#ffe6cc;strokeColor=#d79b00;" vertex="1" parent="1">
          <mxGeometry x="490" y="790" width="70" height="80" as="geometry" />
        </mxCell>
        <mxCell id="-CZ7S4NUAWg_-SnuwwWF-42" value="訪問者" style="shape=umlBoundary;whiteSpace=wrap;html=1;fillColor=#ffe6cc;strokeColor=#d79b00;" vertex="1" parent="1">
          <mxGeometry x="650" y="810" width="100" height="80" as="geometry" />
        </mxCell>
        <mxCell id="-CZ7S4NUAWg_-SnuwwWF-43" value="" style="endArrow=classic;html=1;rounded=0;exitX=1;exitY=0.3333333333333333;exitDx=0;exitDy=0;exitPerimeter=0;entryX=0.02;entryY=0.513;entryDx=0;entryDy=0;entryPerimeter=0;" edge="1" parent="1" source="-CZ7S4NUAWg_-SnuwwWF-35" target="-CZ7S4NUAWg_-SnuwwWF-38">
          <mxGeometry width="50" height="50" relative="1" as="geometry">
            <mxPoint x="390" y="950" as="sourcePoint" />
            <mxPoint x="440" y="900" as="targetPoint" />
          </mxGeometry>
        </mxCell>
        <mxCell id="-CZ7S4NUAWg_-SnuwwWF-44" value="" style="endArrow=classic;html=1;rounded=0;exitX=0.987;exitY=0.529;exitDx=0;exitDy=0;exitPerimeter=0;" edge="1" parent="1" source="-CZ7S4NUAWg_-SnuwwWF-38">
          <mxGeometry width="50" height="50" relative="1" as="geometry">
            <mxPoint x="340" y="810" as="sourcePoint" />
            <mxPoint x="490" y="830" as="targetPoint" />
          </mxGeometry>
        </mxCell>
        <mxCell id="-CZ7S4NUAWg_-SnuwwWF-45" value="" style="endArrow=classic;html=1;rounded=0;exitX=0.067;exitY=0.829;exitDx=0;exitDy=0;exitPerimeter=0;entryX=0.895;entryY=0.271;entryDx=0;entryDy=0;entryPerimeter=0;" edge="1" parent="1" source="-CZ7S4NUAWg_-SnuwwWF-41" target="-CZ7S4NUAWg_-SnuwwWF-39">
          <mxGeometry width="50" height="50" relative="1" as="geometry">
            <mxPoint x="510" y="970" as="sourcePoint" />
            <mxPoint x="560" y="920" as="targetPoint" />
          </mxGeometry>
        </mxCell>
        <mxCell id="-CZ7S4NUAWg_-SnuwwWF-46" value="" style="endArrow=classic;html=1;rounded=0;entryX=0.98;entryY=0.496;entryDx=0;entryDy=0;entryPerimeter=0;exitX=0;exitY=0.621;exitDx=0;exitDy=0;exitPerimeter=0;" edge="1" parent="1" source="-CZ7S4NUAWg_-SnuwwWF-39" target="-CZ7S4NUAWg_-SnuwwWF-37">
          <mxGeometry width="50" height="50" relative="1" as="geometry">
            <mxPoint x="310" y="990" as="sourcePoint" />
            <mxPoint x="360" y="940" as="targetPoint" />
          </mxGeometry>
        </mxCell>
        <mxCell id="-CZ7S4NUAWg_-SnuwwWF-47" value="" style="endArrow=classic;html=1;rounded=0;exitX=0.562;exitY=0.996;exitDx=0;exitDy=0;exitPerimeter=0;entryX=0.81;entryY=0.213;entryDx=0;entryDy=0;entryPerimeter=0;" edge="1" parent="1" source="-CZ7S4NUAWg_-SnuwwWF-41" target="-CZ7S4NUAWg_-SnuwwWF-40">
          <mxGeometry width="50" height="50" relative="1" as="geometry">
            <mxPoint x="530" y="970" as="sourcePoint" />
            <mxPoint x="580" y="920" as="targetPoint" />
          </mxGeometry>
        </mxCell>
        <mxCell id="-CZ7S4NUAWg_-SnuwwWF-48" value="" style="endArrow=classic;html=1;rounded=0;exitX=0.105;exitY=0.813;exitDx=0;exitDy=0;exitPerimeter=0;entryX=1.013;entryY=0.538;entryDx=0;entryDy=0;entryPerimeter=0;" edge="1" parent="1" source="-CZ7S4NUAWg_-SnuwwWF-40" target="-CZ7S4NUAWg_-SnuwwWF-36">
          <mxGeometry width="50" height="50" relative="1" as="geometry">
            <mxPoint x="320" y="1100" as="sourcePoint" />
            <mxPoint x="370" y="1050" as="targetPoint" />
          </mxGeometry>
        </mxCell>
        <mxCell id="-CZ7S4NUAWg_-SnuwwWF-49" value="" style="endArrow=classic;startArrow=classic;html=1;rounded=0;exitX=1.029;exitY=0.721;exitDx=0;exitDy=0;exitPerimeter=0;entryX=-0.027;entryY=0.538;entryDx=0;entryDy=0;entryPerimeter=0;" edge="1" parent="1" source="-CZ7S4NUAWg_-SnuwwWF-41" target="-CZ7S4NUAWg_-SnuwwWF-42">
          <mxGeometry width="50" height="50" relative="1" as="geometry">
            <mxPoint x="570" y="890" as="sourcePoint" />
            <mxPoint x="620" y="840" as="targetPoint" />
          </mxGeometry>
        </mxCell>
        <mxCell id="-CZ7S4NUAWg_-SnuwwWF-51" value="ユーザー&lt;div&gt;&lt;br&gt;&lt;/div&gt;" style="shape=umlActor;verticalLabelPosition=bottom;verticalAlign=top;html=1;outlineConnect=0;fillColor=#f5f5f5;fontColor=#333333;strokeColor=#666666;" vertex="1" parent="1">
          <mxGeometry x="20" y="1460" width="50" height="100" as="geometry" />
        </mxCell>
        <mxCell id="-CZ7S4NUAWg_-SnuwwWF-52" value="ユーザ情報入力ー＞" style="text;html=1;align=center;verticalAlign=middle;whiteSpace=wrap;rounded=0;" vertex="1" parent="1">
          <mxGeometry x="30" y="830" width="110" height="20" as="geometry" />
        </mxCell>
        <mxCell id="-CZ7S4NUAWg_-SnuwwWF-53" value="訪問者一覧&lt;div&gt;画面&lt;/div&gt;" style="shape=umlBoundary;whiteSpace=wrap;html=1;fillColor=#f8cecc;strokeColor=#b85450;" vertex="1" parent="1">
          <mxGeometry x="240" y="1600" width="100" height="80" as="geometry" />
        </mxCell>
        <mxCell id="-CZ7S4NUAWg_-SnuwwWF-54" value="訪問者&lt;div&gt;システム&lt;/div&gt;&lt;div&gt;メニュー&lt;/div&gt;" style="shape=umlBoundary;whiteSpace=wrap;html=1;fillColor=#f8cecc;strokeColor=#b85450;" vertex="1" parent="1">
          <mxGeometry x="240" y="1370" width="100" height="80" as="geometry" />
        </mxCell>
        <mxCell id="-CZ7S4NUAWg_-SnuwwWF-55" value="訪問者&lt;div&gt;一覧表示&lt;/div&gt;" style="ellipse;shape=umlControl;whiteSpace=wrap;html=1;fillColor=#f8cecc;strokeColor=#b85450;" vertex="1" parent="1">
          <mxGeometry x="450" y="1480" width="70" height="80" as="geometry" />
        </mxCell>
        <mxCell id="-CZ7S4NUAWg_-SnuwwWF-56" value="訪問者" style="ellipse;shape=umlEntity;whiteSpace=wrap;html=1;fillColor=#f8cecc;strokeColor=#b85450;" vertex="1" parent="1">
          <mxGeometry x="600" y="1480" width="80" height="80" as="geometry" />
        </mxCell>
        <mxCell id="-CZ7S4NUAWg_-SnuwwWF-57" value="" style="endArrow=classic;html=1;rounded=0;entryX=-0.027;entryY=0.496;entryDx=0;entryDy=0;entryPerimeter=0;exitX=1;exitY=0.3333333333333333;exitDx=0;exitDy=0;exitPerimeter=0;" edge="1" parent="1" source="-CZ7S4NUAWg_-SnuwwWF-51" target="-CZ7S4NUAWg_-SnuwwWF-54">
          <mxGeometry width="50" height="50" relative="1" as="geometry">
            <mxPoint x="360" y="1630" as="sourcePoint" />
            <mxPoint x="410" y="1580" as="targetPoint" />
          </mxGeometry>
        </mxCell>
        <mxCell id="-CZ7S4NUAWg_-SnuwwWF-58" value="" style="endArrow=classic;html=1;rounded=0;entryX=0;entryY=0.375;entryDx=0;entryDy=0;entryPerimeter=0;exitX=0.953;exitY=0.788;exitDx=0;exitDy=0;exitPerimeter=0;" edge="1" parent="1" source="-CZ7S4NUAWg_-SnuwwWF-54" target="-CZ7S4NUAWg_-SnuwwWF-55">
          <mxGeometry width="50" height="50" relative="1" as="geometry">
            <mxPoint x="300" y="1540" as="sourcePoint" />
            <mxPoint x="350" y="1490" as="targetPoint" />
          </mxGeometry>
        </mxCell>
        <mxCell id="-CZ7S4NUAWg_-SnuwwWF-59" value="" style="endArrow=classic;html=1;rounded=0;entryX=0.987;entryY=0.346;entryDx=0;entryDy=0;entryPerimeter=0;" edge="1" parent="1" source="-CZ7S4NUAWg_-SnuwwWF-55" target="-CZ7S4NUAWg_-SnuwwWF-53">
          <mxGeometry width="50" height="50" relative="1" as="geometry">
            <mxPoint x="410" y="1630" as="sourcePoint" />
            <mxPoint x="460" y="1580" as="targetPoint" />
          </mxGeometry>
        </mxCell>
        <mxCell id="-CZ7S4NUAWg_-SnuwwWF-60" value="" style="endArrow=classic;startArrow=classic;html=1;rounded=0;entryX=0;entryY=0.5;entryDx=0;entryDy=0;exitX=1;exitY=0.504;exitDx=0;exitDy=0;exitPerimeter=0;" edge="1" parent="1" source="-CZ7S4NUAWg_-SnuwwWF-55" target="-CZ7S4NUAWg_-SnuwwWF-56">
          <mxGeometry width="50" height="50" relative="1" as="geometry">
            <mxPoint x="360" y="1630" as="sourcePoint" />
            <mxPoint x="410" y="1580" as="targetPoint" />
          </mxGeometry>
        </mxCell>
        <mxCell id="-CZ7S4NUAWg_-SnuwwWF-61" value="訪問者一覧をクリック" style="text;html=1;align=center;verticalAlign=middle;whiteSpace=wrap;rounded=0;" vertex="1" parent="1">
          <mxGeometry x="80" y="1410" width="130" height="20" as="geometry" />
        </mxCell>
      </root>
    </mxGraphModel>
  </diagram>
</mxfile>
